<svg width="55" height="55" fill="none" xmlns="http://www.w3.org/2000/svg"><circle cx="27.5" cy="27.5" r="27.5" fill="#FF7931"/><g clip-path="url(#clip0)" fill="#fff"><path d="M34.8 23.442c-2.076 0-3.765-1.67-3.765-3.721 0-2.052 1.689-3.721 3.765-3.721s3.765 1.67 3.765 3.721c0 2.052-1.689 3.721-3.765 3.721zm0-5.068c-.773 0-1.402.604-1.402 1.347s.629 1.347 1.402 1.347c.773 0 1.402-.604 1.402-1.347s-.63-1.347-1.402-1.347zM40.818 34H16.182c-.442 0-.848-.248-1.05-.643-.203-.394-.17-.87.087-1.232l8.352-11.799a1.18 1.18 0 011.916-.014l5.875 8.037 3.412-3.326a1.178 1.178 0 011.766.136l5.189 6.898c.17.205.271.468.271.756C42 33.47 41.47 34 40.818 34zm-22.346-2.374h19.97l-2.981-3.964-3.426 3.34a1.178 1.178 0 01-1.775-.15l-5.71-7.811-6.078 8.585z"/></g><defs><clipPath id="clip0"><path fill="#fff" d="M15 16h27v18H15z"/></clipPath></defs></svg>