<svg width="63" height="13" viewBox="0 0 63 13" fill="none" xmlns="http://www.w3.org/2000/svg">
<path d="M9.33103 0.639999V12H8.22703V6.688H1.49103V12H0.37103V0.639999H1.49103V5.696H8.22703V0.639999H9.33103ZM18.8064 12.08C18.0171 12.08 17.2917 11.92 16.6304 11.6C15.9797 11.2693 15.4197 10.8373 14.9504 10.304C14.4811 9.76 14.1184 9.14133 13.8624 8.448C13.6064 7.75467 13.4784 7.04533 13.4784 6.32C13.4784 5.56267 13.6117 4.83733 13.8784 4.144C14.1557 3.45067 14.5344 2.83733 15.0144 2.304C15.4944 1.77067 16.0597 1.34933 16.7104 1.04C17.3611 0.719999 18.0651 0.559999 18.8224 0.559999C19.6117 0.559999 20.3317 0.730666 20.9824 1.072C21.6437 1.40267 22.2037 1.84 22.6624 2.384C23.1317 2.928 23.4944 3.54667 23.7504 4.24C24.0064 4.92267 24.1344 5.62133 24.1344 6.336C24.1344 7.09333 23.9957 7.81867 23.7184 8.512C23.4517 9.20533 23.0784 9.81867 22.5984 10.352C22.1291 10.8747 21.5691 11.296 20.9184 11.616C20.2677 11.9253 19.5637 12.08 18.8064 12.08ZM14.5984 6.32C14.5984 6.93867 14.6997 7.536 14.9024 8.112C15.1051 8.67733 15.3931 9.184 15.7664 9.632C16.1397 10.0693 16.5824 10.4213 17.0944 10.688C17.6064 10.944 18.1771 11.072 18.8064 11.072C19.4464 11.072 20.0277 10.9333 20.5504 10.656C21.0731 10.3787 21.5157 10.016 21.8784 9.568C22.2411 9.12 22.5184 8.61333 22.7104 8.048C22.9131 7.48267 23.0144 6.90667 23.0144 6.32C23.0144 5.70133 22.9077 5.10933 22.6944 4.544C22.4917 3.968 22.2037 3.46133 21.8304 3.024C21.4571 2.58667 21.0144 2.24 20.5024 1.984C19.9904 1.71733 19.4251 1.584 18.8064 1.584C18.1664 1.584 17.5851 1.72267 17.0624 2C16.5397 2.26667 16.0971 2.624 15.7344 3.072C15.3717 3.52 15.0891 4.02667 14.8864 4.592C14.6944 5.15733 14.5984 5.73333 14.5984 6.32ZM36.566 9.072C36.566 9.49867 36.4807 9.89333 36.31 10.256C36.1394 10.608 35.91 10.9173 35.622 11.184C35.334 11.44 34.998 11.6427 34.614 11.792C34.23 11.9307 33.8194 12 33.382 12H28.022V0.639999H33.494C33.8887 0.639999 34.246 0.725333 34.566 0.896C34.886 1.06667 35.158 1.29067 35.382 1.568C35.606 1.83467 35.7767 2.144 35.894 2.496C36.022 2.83733 36.086 3.184 36.086 3.536C36.086 4.112 35.942 4.64 35.654 5.12C35.366 5.58933 34.966 5.94133 34.454 6.176C35.1047 6.368 35.6167 6.72533 35.99 7.248C36.374 7.77067 36.566 8.37867 36.566 9.072ZM35.446 8.88C35.446 8.60267 35.398 8.336 35.302 8.08C35.206 7.81333 35.0674 7.584 34.886 7.392C34.7154 7.18933 34.5074 7.02933 34.262 6.912C34.0274 6.784 33.7714 6.72 33.494 6.72H29.142V11.024H33.382C33.67 11.024 33.9367 10.9653 34.182 10.848C34.438 10.7307 34.6567 10.576 34.838 10.384C35.03 10.1813 35.1794 9.952 35.286 9.696C35.3927 9.42933 35.446 9.15733 35.446 8.88ZM29.142 1.616V5.808H33.046C33.3234 5.808 33.5794 5.74933 33.814 5.632C34.0594 5.51467 34.2674 5.36 34.438 5.168C34.6087 4.976 34.742 4.75733 34.838 4.512C34.934 4.256 34.982 3.98933 34.982 3.712C34.982 3.424 34.934 3.152 34.838 2.896C34.7527 2.64 34.6247 2.42133 34.454 2.24C34.294 2.048 34.102 1.89867 33.878 1.792C33.654 1.67467 33.4087 1.616 33.142 1.616H29.142ZM45.5095 12.08C44.7202 12.08 43.9949 11.92 43.3335 11.6C42.6829 11.2693 42.1229 10.8373 41.6535 10.304C41.1842 9.76 40.8215 9.14133 40.5655 8.448C40.3095 7.75467 40.1815 7.04533 40.1815 6.32C40.1815 5.56267 40.3149 4.83733 40.5815 4.144C40.8589 3.45067 41.2375 2.83733 41.7175 2.304C42.1975 1.77067 42.7629 1.34933 43.4135 1.04C44.0642 0.719999 44.7682 0.559999 45.5255 0.559999C46.3149 0.559999 47.0349 0.730666 47.6855 1.072C48.3469 1.40267 48.9069 1.84 49.3655 2.384C49.8349 2.928 50.1975 3.54667 50.4535 4.24C50.7095 4.92267 50.8375 5.62133 50.8375 6.336C50.8375 7.09333 50.6989 7.81867 50.4215 8.512C50.1549 9.20533 49.7815 9.81867 49.3015 10.352C48.8322 10.8747 48.2722 11.296 47.6215 11.616C46.9709 11.9253 46.2669 12.08 45.5095 12.08ZM41.3015 6.32C41.3015 6.93867 41.4029 7.536 41.6055 8.112C41.8082 8.67733 42.0962 9.184 42.4695 9.632C42.8429 10.0693 43.2855 10.4213 43.7975 10.688C44.3095 10.944 44.8802 11.072 45.5095 11.072C46.1495 11.072 46.7309 10.9333 47.2535 10.656C47.7762 10.3787 48.2189 10.016 48.5815 9.568C48.9442 9.12 49.2215 8.61333 49.4135 8.048C49.6162 7.48267 49.7175 6.90667 49.7175 6.32C49.7175 5.70133 49.6109 5.10933 49.3975 4.544C49.1949 3.968 48.9069 3.46133 48.5335 3.024C48.1602 2.58667 47.7175 2.24 47.2055 1.984C46.6935 1.71733 46.1282 1.584 45.5095 1.584C44.8695 1.584 44.2882 1.72267 43.7655 2C43.2429 2.26667 42.8002 2.624 42.4375 3.072C42.0749 3.52 41.7922 4.02667 41.5895 4.592C41.3975 5.15733 41.3015 5.73333 41.3015 6.32ZM62.5652 11.008V12H54.9332V0.639999H62.4212V1.632H56.0532V5.728H61.6052V6.672H56.0532V11.008H62.5652Z" fill="white"/>
</svg>
